<mxfile host="app.diagrams.net" agent="Mozilla/5.0 (Macintosh; Intel Mac OS X 10_15_7) AppleWebKit/605.1.15 (KHTML, like Gecko) Version/18.3 Safari/605.1.15" version="26.0.16">
  <diagram name="Pagina-1" id="2flTTwfJ_obrAZm3Z_zt">
    <mxGraphModel grid="1" page="1" gridSize="10" guides="1" tooltips="1" connect="1" arrows="1" fold="1" pageScale="1" pageWidth="827" pageHeight="1169" math="0" shadow="0">
      <root>
        <mxCell id="0" />
        <mxCell id="1" parent="0" />
        <mxCell id="M-lux6zi0oPpwxC7ChQA-1" value="&lt;font&gt;Es7: Creare un diagramma di flusso che conti quanti numeri&amp;nbsp;&lt;/font&gt;&lt;div&gt;&lt;font&gt;di tre cifre sono divisibili sia per 9&lt;br&gt;&lt;/font&gt;&lt;div&gt;&lt;font&gt;e sia per 10, contemporaneamente.&lt;/font&gt;&lt;/div&gt;&lt;/div&gt;&lt;div&gt;Il diagramma deve stampare poi la soluzione&lt;/div&gt;&lt;div&gt;N.B. Non ci sono input, ma tutto definito dall&#39;algoritmo.&lt;/div&gt;" style="text;html=1;align=center;verticalAlign=middle;resizable=0;points=[];autosize=1;strokeColor=none;fillColor=none;fontSize=16;" vertex="1" parent="1">
          <mxGeometry x="189" y="65" width="450" height="110" as="geometry" />
        </mxCell>
        <mxCell id="gtlXLPxt7Z-I1HlXSM4u-2" value="" style="edgeStyle=orthogonalEdgeStyle;rounded=0;orthogonalLoop=1;jettySize=auto;html=1;" edge="1" parent="1" source="A7oJL5UCQJ8ZpZw4_ZLN-1" target="gtlXLPxt7Z-I1HlXSM4u-1">
          <mxGeometry relative="1" as="geometry" />
        </mxCell>
        <mxCell id="A7oJL5UCQJ8ZpZw4_ZLN-1" value="" style="ellipse;whiteSpace=wrap;html=1;aspect=fixed;" vertex="1" parent="1">
          <mxGeometry x="394" y="200" width="40" height="40" as="geometry" />
        </mxCell>
        <mxCell id="gtlXLPxt7Z-I1HlXSM4u-4" value="" style="edgeStyle=orthogonalEdgeStyle;rounded=0;orthogonalLoop=1;jettySize=auto;html=1;" edge="1" parent="1" source="gtlXLPxt7Z-I1HlXSM4u-1" target="gtlXLPxt7Z-I1HlXSM4u-3">
          <mxGeometry relative="1" as="geometry" />
        </mxCell>
        <mxCell id="gtlXLPxt7Z-I1HlXSM4u-1" value="count = 0, i = 100" style="shape=hexagon;perimeter=hexagonPerimeter2;whiteSpace=wrap;html=1;fixedSize=1;" vertex="1" parent="1">
          <mxGeometry x="354" y="260" width="120" height="80" as="geometry" />
        </mxCell>
        <mxCell id="gtlXLPxt7Z-I1HlXSM4u-6" value="" style="edgeStyle=orthogonalEdgeStyle;rounded=0;orthogonalLoop=1;jettySize=auto;html=1;" edge="1" parent="1" source="gtlXLPxt7Z-I1HlXSM4u-3" target="gtlXLPxt7Z-I1HlXSM4u-5">
          <mxGeometry relative="1" as="geometry" />
        </mxCell>
        <mxCell id="gtlXLPxt7Z-I1HlXSM4u-3" value="" style="ellipse;whiteSpace=wrap;html=1;aspect=fixed;" vertex="1" parent="1">
          <mxGeometry x="399" y="370" width="30" height="30" as="geometry" />
        </mxCell>
        <mxCell id="gtlXLPxt7Z-I1HlXSM4u-10" value="" style="edgeStyle=orthogonalEdgeStyle;rounded=0;orthogonalLoop=1;jettySize=auto;html=1;" edge="1" parent="1" source="gtlXLPxt7Z-I1HlXSM4u-5" target="gtlXLPxt7Z-I1HlXSM4u-9">
          <mxGeometry relative="1" as="geometry" />
        </mxCell>
        <mxCell id="gtlXLPxt7Z-I1HlXSM4u-21" value="" style="edgeStyle=orthogonalEdgeStyle;rounded=0;orthogonalLoop=1;jettySize=auto;html=1;" edge="1" parent="1" source="gtlXLPxt7Z-I1HlXSM4u-5" target="gtlXLPxt7Z-I1HlXSM4u-20">
          <mxGeometry relative="1" as="geometry" />
        </mxCell>
        <mxCell id="gtlXLPxt7Z-I1HlXSM4u-5" value="i &amp;lt;= 999" style="rhombus;whiteSpace=wrap;html=1;" vertex="1" parent="1">
          <mxGeometry x="374" y="430" width="80" height="80" as="geometry" />
        </mxCell>
        <mxCell id="gtlXLPxt7Z-I1HlXSM4u-13" value="" style="edgeStyle=orthogonalEdgeStyle;rounded=0;orthogonalLoop=1;jettySize=auto;html=1;" edge="1" parent="1" source="gtlXLPxt7Z-I1HlXSM4u-9" target="gtlXLPxt7Z-I1HlXSM4u-12">
          <mxGeometry relative="1" as="geometry" />
        </mxCell>
        <mxCell id="gtlXLPxt7Z-I1HlXSM4u-16" style="edgeStyle=orthogonalEdgeStyle;rounded=0;orthogonalLoop=1;jettySize=auto;html=1;entryX=0;entryY=0.5;entryDx=0;entryDy=0;" edge="1" parent="1" source="gtlXLPxt7Z-I1HlXSM4u-9" target="gtlXLPxt7Z-I1HlXSM4u-14">
          <mxGeometry relative="1" as="geometry">
            <Array as="points">
              <mxPoint x="480" y="570" />
              <mxPoint x="480" y="745" />
            </Array>
          </mxGeometry>
        </mxCell>
        <mxCell id="gtlXLPxt7Z-I1HlXSM4u-9" value="i % 9 == 0 &amp;amp;&amp;amp;&lt;div&gt;i % 10 == 0&lt;/div&gt;" style="rhombus;whiteSpace=wrap;html=1;" vertex="1" parent="1">
          <mxGeometry x="500" y="520" width="110" height="100" as="geometry" />
        </mxCell>
        <mxCell id="gtlXLPxt7Z-I1HlXSM4u-11" value="V" style="text;html=1;align=center;verticalAlign=middle;resizable=0;points=[];autosize=1;strokeColor=none;fillColor=none;" vertex="1" parent="1">
          <mxGeometry x="520" y="440" width="30" height="30" as="geometry" />
        </mxCell>
        <mxCell id="gtlXLPxt7Z-I1HlXSM4u-15" style="edgeStyle=orthogonalEdgeStyle;rounded=0;orthogonalLoop=1;jettySize=auto;html=1;entryX=1;entryY=0.5;entryDx=0;entryDy=0;" edge="1" parent="1" source="gtlXLPxt7Z-I1HlXSM4u-12" target="gtlXLPxt7Z-I1HlXSM4u-14">
          <mxGeometry relative="1" as="geometry">
            <Array as="points">
              <mxPoint x="690" y="745" />
            </Array>
          </mxGeometry>
        </mxCell>
        <mxCell id="gtlXLPxt7Z-I1HlXSM4u-12" value="count = count + 1" style="whiteSpace=wrap;html=1;" vertex="1" parent="1">
          <mxGeometry x="630" y="630" width="120" height="60" as="geometry" />
        </mxCell>
        <mxCell id="gtlXLPxt7Z-I1HlXSM4u-27" value="" style="edgeStyle=orthogonalEdgeStyle;rounded=0;orthogonalLoop=1;jettySize=auto;html=1;" edge="1" parent="1" source="gtlXLPxt7Z-I1HlXSM4u-14" target="gtlXLPxt7Z-I1HlXSM4u-26">
          <mxGeometry relative="1" as="geometry" />
        </mxCell>
        <mxCell id="gtlXLPxt7Z-I1HlXSM4u-14" value="" style="ellipse;whiteSpace=wrap;html=1;aspect=fixed;" vertex="1" parent="1">
          <mxGeometry x="540" y="730" width="30" height="30" as="geometry" />
        </mxCell>
        <mxCell id="gtlXLPxt7Z-I1HlXSM4u-17" value="V" style="text;html=1;align=center;verticalAlign=middle;resizable=0;points=[];autosize=1;strokeColor=none;fillColor=none;" vertex="1" parent="1">
          <mxGeometry x="655" y="548" width="30" height="30" as="geometry" />
        </mxCell>
        <mxCell id="gtlXLPxt7Z-I1HlXSM4u-18" value="F" style="text;html=1;align=center;verticalAlign=middle;resizable=0;points=[];autosize=1;strokeColor=none;fillColor=none;" vertex="1" parent="1">
          <mxGeometry x="465" y="548" width="30" height="30" as="geometry" />
        </mxCell>
        <mxCell id="gtlXLPxt7Z-I1HlXSM4u-25" value="" style="edgeStyle=orthogonalEdgeStyle;rounded=0;orthogonalLoop=1;jettySize=auto;html=1;" edge="1" parent="1" source="gtlXLPxt7Z-I1HlXSM4u-20" target="gtlXLPxt7Z-I1HlXSM4u-24">
          <mxGeometry relative="1" as="geometry" />
        </mxCell>
        <mxCell id="gtlXLPxt7Z-I1HlXSM4u-20" value="count" style="shape=parallelogram;perimeter=parallelogramPerimeter;whiteSpace=wrap;html=1;fixedSize=1;" vertex="1" parent="1">
          <mxGeometry x="189" y="525" width="120" height="60" as="geometry" />
        </mxCell>
        <mxCell id="gtlXLPxt7Z-I1HlXSM4u-22" value="o" style="text;html=1;align=center;verticalAlign=middle;resizable=0;points=[];autosize=1;strokeColor=none;fillColor=none;" vertex="1" parent="1">
          <mxGeometry x="285" y="488" width="30" height="30" as="geometry" />
        </mxCell>
        <mxCell id="gtlXLPxt7Z-I1HlXSM4u-23" value="F" style="text;html=1;align=center;verticalAlign=middle;resizable=0;points=[];autosize=1;strokeColor=none;fillColor=none;" vertex="1" parent="1">
          <mxGeometry x="245" y="428" width="30" height="30" as="geometry" />
        </mxCell>
        <mxCell id="gtlXLPxt7Z-I1HlXSM4u-24" value="" style="ellipse;whiteSpace=wrap;html=1;fillColor=#000000;" vertex="1" parent="1">
          <mxGeometry x="209" y="630" width="80" height="80" as="geometry" />
        </mxCell>
        <mxCell id="gtlXLPxt7Z-I1HlXSM4u-28" style="edgeStyle=orthogonalEdgeStyle;rounded=0;orthogonalLoop=1;jettySize=auto;html=1;entryX=1;entryY=0.5;entryDx=0;entryDy=0;" edge="1" parent="1" source="gtlXLPxt7Z-I1HlXSM4u-26" target="gtlXLPxt7Z-I1HlXSM4u-3">
          <mxGeometry relative="1" as="geometry">
            <Array as="points">
              <mxPoint x="770" y="830" />
              <mxPoint x="770" y="385" />
            </Array>
          </mxGeometry>
        </mxCell>
        <mxCell id="gtlXLPxt7Z-I1HlXSM4u-26" value="i = i + 1" style="whiteSpace=wrap;html=1;" vertex="1" parent="1">
          <mxGeometry x="495" y="800" width="120" height="60" as="geometry" />
        </mxCell>
      </root>
    </mxGraphModel>
  </diagram>
</mxfile>
